<?xml version="1.0" encoding="utf-8"?>
<!-- Generator: Adobe Illustrator 16.0.0, SVG Export Plug-In . SVG Version: 6.00 Build 0)  -->
<!DOCTYPE svg PUBLIC "-//W3C//DTD SVG 1.1//EN" "http://www.w3.org/Graphics/SVG/1.1/DTD/svg11.dtd">


<svg version="1.1" xmlns="http://www.w3.org/2000/svg" xmlns:xlink="http://www.w3.org/1999/xlink">
	 
<!-- git -->

<symbol viewBox="0 0 26 22" id="git">
<g>
	<path d="M25.047,17.422C22.984,21.594,17.313,22,13.25,22c-4.125,0-10.141-0.359-12.281-4.578
		C0.172,15.844,0,13.984,0,12.25c0-2.281,0.625-4.438,2.125-6.188C1.844,5.203,1.703,4.297,1.703,3.406
		C1.703,2.234,1.969,1.063,2.5,0c2.469,0,4.047,1.078,5.922,2.547C10,2.172,11.625,2,13.25,2c1.469,0,2.953,0.156,4.375,0.5
		C19.484,1.047,21.063,0,23.5,0c0.531,1.063,0.797,2.234,0.797,3.406c0,0.891-0.141,1.781-0.422,2.625
		C25.375,7.797,26,9.969,26,12.25C26,13.984,25.828,15.828,25.047,17.422z M18.5,10.5c-1.031,0-2.016,0.188-3.047,0.328
		C14.641,10.953,13.828,11,13,11s-1.641-0.047-2.453-0.172C9.531,10.688,8.531,10.5,7.5,10.5c-2.547,0-4,2.109-4,4.5
		c0,4.781,4.375,5.516,8.188,5.516h2.625c3.813,0,8.188-0.734,8.188-5.516C22.5,12.609,21.047,10.5,18.5,10.5z M8,18
		c-1.406,0-2-1.859-2-3s0.594-3,2-3s2,1.859,2,3S9.406,18,8,18z M18,18c-1.406,0-2-1.859-2-3s0.594-3,2-3s2,1.859,2,3
		S19.406,18,18,18z"/>
</g>
</symbol>
    
<!-- git__round -->
    <symbol id="git__round" viewBox="0 0 50 50">
<g>
	<path fill="#FFFFFF" d="M30.5,24.5c-1.031,0-2.016,0.188-3.047,0.328C26.641,24.953,25.828,25,25,25s-1.641-0.047-2.453-0.172
		C21.531,24.688,20.531,24.5,19.5,24.5c-2.547,0-4,2.109-4,4.5c0,4.781,4.375,5.516,8.188,5.516h2.625
		c3.813,0,8.188-0.734,8.188-5.516C34.5,26.609,33.047,24.5,30.5,24.5z M20,32c-1.406,0-2-1.859-2-3s0.594-3,2-3s2,1.859,2,3
		S21.406,32,20,32z M30,32c-1.406,0-2-1.859-2-3s0.594-3,2-3s2,1.859,2,3S31.406,32,30,32z"/>
	<path fill="#FFFFFF" d="M25,0C11.192,0,0,11.193,0,25s11.192,25,25,25s25-11.193,25-25S38.808,0,25,0z M37.047,31.422
		C34.984,35.594,29.313,36,25.25,36c-4.125,0-10.141-0.359-12.281-4.578C12.172,29.844,12,27.984,12,26.25
		c0-2.281,0.625-4.438,2.125-6.188c-0.281-0.859-0.422-1.766-0.422-2.656c0-1.172,0.266-2.344,0.797-3.406
		c2.469,0,4.047,1.078,5.922,2.547C22,16.172,23.625,16,25.25,16c1.469,0,2.953,0.156,4.375,0.5c1.859-1.453,3.438-2.5,5.875-2.5
		c0.531,1.063,0.797,2.234,0.797,3.406c0,0.891-0.141,1.781-0.422,2.625C37.375,21.797,38,23.969,38,26.25
		C38,27.984,37.828,29.828,37.047,31.422z"/>
</g>
</symbol>
    
<!-- in__round -->
    
<symbol id="in__round" viewBox="0 0 50 50">
    <path fill="#FFFFFF" d="M25,0C11.192,0,0,11.193,0,25s11.192,25,25,25s25-11.193,25-25S38.808,0,25,0z M19.453,34.136h-5.156V18.651
        h5.156V34.136z M16.875,16.542h-0.031c-1.734,0-2.844-1.188-2.844-2.672c0-1.516,1.156-2.672,2.906-2.672
        c1.766,0,2.859,1.156,2.875,2.672C19.797,15.354,18.672,16.542,16.875,16.542z M38,34.136h-5.141v-8.281c0-2.078-0.75-3.5-2.609-3.5
        c-1.422,0-2.266,0.953-2.641,1.875c-0.125,0.344-0.172,0.797-0.172,1.266v8.641h-5.141c0.063-14.031,0-15.484,0-15.484h5.141v2.204
        c0.678-1.061,1.898-2.563,4.641-2.563c3.391,0,5.922,2.219,5.922,6.969V34.136z"/>
</symbol>

<!-- in --> 
<symbol viewBox="0 0 24 22.938" id="in">
<g>
	<path  d="M2.875,5.344H2.844C1.109,5.344,0,4.156,0,2.672C0,1.156,1.156,0,2.906,0c1.766,0,2.859,1.156,2.875,2.672
		C5.797,4.156,4.672,5.344,2.875,5.344z M5.453,22.938H0.297V7.453h5.156V22.938z M24,22.938h-5.141v-8.281
		c0-2.078-0.75-3.5-2.609-3.5c-1.422,0-2.266,0.953-2.641,1.875c-0.125,0.344-0.172,0.797-0.172,1.266v8.641H8.297
		c0.063-14.031,0-15.484,0-15.484h5.141v2.25h-0.031c0.672-1.063,1.891-2.609,4.672-2.609c3.391,0,5.922,2.219,5.922,6.969V22.938z"
		/>
</g>
</symbol>

<!-- vk -->
<symbol id="vk" viewBox="0 0 30.011 17.123">
<g>
	<path d="M27.625,5.832c-3.031,4.031-3.359,3.656-0.859,5.984c2.406,2.234,2.906,3.313,2.984,3.453
		c0,0,1,1.75-1.109,1.766l-4,0.063c-0.859,0.172-2-0.609-2-0.609c-1.5-1.031-2.906-3.703-4-3.359c0,0-1.125,0.359-1.094,2.766
		c0.016,0.516-0.234,0.797-0.234,0.797s-0.281,0.297-0.828,0.344h-1.797c-3.953,0.25-7.438-3.391-7.438-3.391
		S3.437,9.707,0.093,1.848c-0.219-0.516,0.016-0.766,0.016-0.766S0.343,0.785,1,0.785l4.281-0.031
		c0.406,0.063,0.688,0.281,0.688,0.281s0.25,0.172,0.375,0.5c0.703,1.75,1.609,3.344,1.609,3.344
		c1.563,3.219,2.625,3.766,3.234,3.438c0,0,0.797-0.484,0.625-4.375c-0.063-1.406-0.453-2.047-0.453-2.047
		C11,1.41,10.328,1.27,10.031,1.223c-0.234-0.031,0.156-0.594,0.672-0.844c0.766-0.375,2.125-0.391,3.734-0.375
		c1.266,0.016,1.625,0.094,2.109,0.203c1.484,0.359,0.984,1.734,0.984,5.047c0,1.063-0.203,2.547,0.563,3.031
		c0.328,0.219,1.141,0.031,3.141-3.375c0,0,0.938-1.625,1.672-3.516c0.125-0.344,0.391-0.484,0.391-0.484s0.25-0.141,0.594-0.094
		l4.5-0.031c1.359-0.172,1.578,0.453,1.578,0.453C30.203,1.879,29.468,3.379,27.625,5.832z"/>
        </g>
    </symbol>


<!-- vk__round -->

<symbol id="vk__round" viewBox="0 0 50 50">
<path fill="#fff" d="M25,0C11.193,0,0,11.193,0,25c0,13.807,11.193,25,25,25c13.807,0,25-11.193,25-25C50,11.193,38.807,0,25,0z
	 M36.76,28.255c2.406,2.234,2.906,3.313,2.984,3.453c0,0,1,1.75-1.109,1.766l-4,0.063c-0.859,0.172-2-0.609-2-0.609
	c-1.5-1.031-2.906-3.703-4-3.359c0,0-1.125,0.359-1.094,2.766c0.016,0.516-0.234,0.797-0.234,0.797s-0.281,0.297-0.828,0.344h-1.797
	c-3.953,0.25-7.438-3.391-7.438-3.391s-3.813-3.938-7.156-11.797c-0.219-0.516,0.016-0.766,0.016-0.766s0.234-0.297,0.891-0.297
	l4.281-0.031c0.406,0.063,0.688,0.281,0.688,0.281s0.25,0.172,0.375,0.5c0.703,1.75,1.609,3.344,1.609,3.344
	c1.563,3.219,2.625,3.766,3.234,3.438c0,0,0.797-0.484,0.625-4.375c-0.063-1.406-0.453-2.047-0.453-2.047
	c-0.359-0.484-1.031-0.625-1.328-0.672c-0.234-0.031,0.156-0.594,0.672-0.844c0.766-0.375,2.125-0.391,3.734-0.375
	c1.266,0.016,1.625,0.094,2.109,0.203c1.484,0.359,0.984,1.734,0.984,5.047c0,1.063-0.203,2.547,0.563,3.031
	c0.328,0.219,1.141,0.031,3.141-3.375c0,0,0.938-1.625,1.672-3.516c0.125-0.344,0.391-0.484,0.391-0.484s0.25-0.141,0.594-0.094
	l4.5-0.031c1.359-0.172,1.578,0.453,1.578,0.453c0.234,0.641-0.5,2.141-2.344,4.594C34.588,26.302,34.26,25.927,36.76,28.255z"/>
</symbol>


<!-- hamburger -->

<symbol id="hamburger" viewBox="0 0 40 35">
<path fill="#FFFFFF" d="M40,2.5C40,3.881,38.881,5,37.5,5h-35C1.119,5,0,3.881,0,2.5l0,0C0,1.119,1.119,0,2.5,0h35
	C38.881,0,40,1.119,40,2.5L40,2.5z"/>
<path fill="#FFFFFF" d="M40,17.5c0,1.381-1.119,2.5-2.5,2.5h-35C1.119,20,0,18.881,0,17.5l0,0C0,16.119,1.119,15,2.5,15h35
	C38.881,15,40,16.119,40,17.5L40,17.5z"/>
<path fill="#FFFFFF" d="M40,32.5c0,1.381-1.119,2.5-2.5,2.5h-35C1.119,35,0,33.881,0,32.5l0,0C0,31.119,1.119,30,2.5,30h35
	C38.881,30,40,31.119,40,32.5L40,32.5z"/>
</symbol>

    
    <!-- arrow__header -->
    
    <symbol id="arrow__header" viewBox="0 0 25.18 16.164">
<g>
	<path d="M13.293,15.871c-0.391,0.391-1.016,0.391-1.406,0L0.293,4.293c-0.391-0.391-0.391-1.031,0-1.422
		l2.594-2.578c0.391-0.391,1.016-0.391,1.406,0L12.59,8.59l8.297-8.297c0.391-0.391,1.016-0.391,1.406,0l2.594,2.578
		c0.391,0.391,0.391,1.031,0,1.422L13.293,15.871z"/>
</g>
</symbol>
    
    <!-- skype -->
    
    <symbol id="skype" viewBox="0 0 24 24">
<g>
	<path fill="#00BFA5" d="M18,24c-1.375,0-2.641-0.469-3.656-1.25C13.594,22.906,12.797,23,12,23C5.922,23,1,18.078,1,12
		c0-0.797,0.094-1.594,0.25-2.344C0.469,8.641,0,7.375,0,6c0-3.313,2.688-6,6-6c1.375,0,2.641,0.469,3.656,1.25
		C10.406,1.094,11.203,1,12,1c6.078,0,11,4.922,11,11c0,0.797-0.094,1.594-0.25,2.344C23.531,15.359,24,16.625,24,18
		C24,21.313,21.313,24,18,24z M13.469,10.453l-1.625-0.375c-1.188-0.281-2.078-0.484-2.078-1.391c0-0.828,0.875-1.203,2.25-1.203
		c2.453,0,2.5,1.797,4.016,1.797c1.016,0,1.625-0.797,1.625-1.703c0-1.797-2.984-2.969-5.938-2.969
		c-2.703,0-5.844,1.172-5.844,4.344c0,2.625,1.75,3.563,4.031,4.109l2.281,0.563c1.391,0.344,2.25,0.5,2.25,1.5
		c0,0.797-0.891,1.406-2.266,1.406c-2.891,0-3.047-2.406-4.719-2.406c-1.094,0-1.578,0.781-1.578,1.641
		c0,1.922,2.938,3.484,6.453,3.484c2.938,0,6-1.469,6-4.641C18.328,11.891,15.688,10.953,13.469,10.453z"/>
</g>
</symbol>
    
    <!-- envelope --> 
    
    <symbol id="envelope" viewBox="0 0 22.012 17.295">
<g>
	<path fill="#00BFA5" d="M19.911,5.331c-1.916,1.327-3.845,2.653-5.748,3.992c-0.799,0.553-2.15,1.683-3.145,1.683h-0.013h-0.012
		c-0.995,0-2.346-1.13-3.145-1.683C5.945,7.984,4.017,6.658,2.113,5.331C1.241,4.741,0,3.354,0,2.235C0,1.032,0.651,0,1.965,0
		h18.082c1.068,0,1.965,0.884,1.965,1.965C22.012,3.341,20.992,4.582,19.911,5.331z M22.012,15.33c0,1.08-0.885,1.965-1.965,1.965
		H1.965C0.884,17.295,0,16.41,0,15.33V5.577c0.369,0.405,0.786,0.762,1.241,1.069c2.039,1.388,4.103,2.776,6.104,4.237
		c1.032,0.762,2.31,1.695,3.648,1.695h0.012h0.013c1.339,0,2.616-0.934,3.647-1.695c2.003-1.449,4.066-2.85,6.117-4.237
		c0.442-0.307,0.86-0.664,1.229-1.069V15.33z"/>
</g>
</symbol>
    
    <!-- phone -->
    
    <symbol id="phone" viewBox="0 0 18.864 18.863">
<g>
	<path fill="#00BFA5" d="M18.448,16.76c-0.281,0.656-1.031,1.086-1.634,1.42c-0.791,0.43-1.595,0.684-2.492,0.684
		c-1.246,0-2.371-0.51-3.51-0.924c-0.817-0.295-1.608-0.657-2.345-1.112c-2.278-1.407-5.024-4.153-6.431-6.431
		C1.581,9.659,1.219,8.869,0.924,8.052C0.509,6.913,0,5.788,0,4.542C0,3.644,0.254,2.84,0.683,2.05
		c0.335-0.603,0.764-1.353,1.42-1.634C2.545,0.214,3.483,0,3.965,0C4.06,0,4.153,0,4.247,0.04c0.281,0.094,0.576,0.75,0.71,1.019
		c0.429,0.764,0.844,1.541,1.286,2.291c0.214,0.349,0.616,0.777,0.616,1.192c0,0.817-2.425,2.01-2.425,2.733
		c0,0.361,0.335,0.831,0.522,1.152c1.353,2.438,3.041,4.126,5.479,5.479c0.322,0.188,0.791,0.522,1.152,0.522
		c0.724,0,1.916-2.425,2.733-2.425c0.415,0,0.844,0.402,1.192,0.616c0.75,0.442,1.527,0.857,2.291,1.286
		c0.268,0.134,0.924,0.429,1.018,0.71c0.041,0.094,0.041,0.188,0.041,0.281C18.864,15.38,18.649,16.318,18.448,16.76z"/>
</g>
</symbol>
    
    <!-- map-marker -->
    
    <symbol id="map-marker" viewBox="0 0 15.151 21.654">
<g id="Glyph_copy_2">
	<path fill="#00BEA4" d="M11.004,7.835c0-1.883-1.538-3.414-3.43-3.414c-1.889,0-3.431,1.531-3.431,3.414
		c0,1.884,1.542,3.419,3.431,3.419C9.466,11.254,11.004,9.719,11.004,7.835z"/>
	<path fill="#00BEA4" d="M7.574,21.654l1.388-1.817c1.455-1.925,6.189-8.469,6.189-12.049C15.151,3.132,12.106,0,7.574,0
		C3.045,0,0,3.132,0,7.788c0,3.854,5.56,11.223,6.192,12.049L7.574,21.654z M2.792,7.835c0-2.628,2.146-4.77,4.782-4.77
		c2.64,0,4.785,2.142,4.785,4.77c0,2.63-2.146,4.771-4.785,4.771C4.938,12.605,2.792,10.465,2.792,7.835z"/>
</g>
</symbol>

	<!-- instagram -->
	<symbol id="instagram" viewBox="0 0 15.151 21.654">
	<path d="M11.984 16.815c2.596 0 4.706-2.111 4.706-4.707 0-1.409-.623-2.674-1.606-3.538-.346-.303-.735-.556-1.158-.748-.593-.27-1.249-.421-1.941-.421s-1.349.151-1.941.421c-.424.194-.814.447-1.158.749-.985.864-1.608 2.129-1.608 3.538 0 2.595 2.112 4.706 4.706 4.706zm.016-8.184c1.921 0 3.479 1.557 3.479 3.478 0 1.921-1.558 3.479-3.479 3.479s-3.479-1.557-3.479-3.479c0-1.921 1.558-3.478 3.479-3.478zm5.223.369h6.777v10.278c0 2.608-2.114 4.722-4.722 4.722h-14.493c-2.608 0-4.785-2.114-4.785-4.722v-10.278h6.747c-.544.913-.872 1.969-.872 3.109 0 3.374 2.735 6.109 6.109 6.109s6.109-2.735 6.109-6.109c.001-1.14-.327-2.196-.87-3.109zm2.055-9h-12.278v5h-1v-5h-1v5h-1v-4.923c-.346.057-.682.143-1 .27v4.653h-1v-4.102c-1.202.857-2 2.246-2 3.824v3.278h7.473c1.167-1.282 2.798-2 4.511-2 1.722 0 3.351.725 4.511 2h7.505v-3.278c0-2.608-2.114-4.722-4.722-4.722zm2.722 5.265c0 .406-.333.735-.745.735h-2.511c-.411 0-.744-.329-.744-.735v-2.53c0-.406.333-.735.744-.735h2.511c.412 0 .745.329.745.735v2.53z"/>
	</symbol>
    
	<!-- brade-line -->
	<symbol id="brade-line" viewBox="0 0 15.151 21.654">
	<path d="M1.29,0.98L7.5,9l-6.21,8.01l-0.68-0.54L6.42,9l-5.8-7.49L1.29,0.98z" fill="#d6d6d6" />
    </symbol>
	
	<!-- player -->
	<symbol id="player" viewBox="0 0 22 28">
	<path d="M21.625 14.484l-20.75 11.531c-0.484 0.266-0.875 0.031-0.875-0.516v-23c0-0.547 0.391-0.781 0.875-0.516l20.75 11.531c0.484 0.266 0.484 0.703 0 0.969z"></path>
	</symbol>
	
	<!-- like -->
	<symbol id="like" viewBox="0 0 24 28">
	<path d="M4 21c0-0.547-0.453-1-1-1s-1 0.453-1 1 0.453 1 1 1 1-0.453 1-1zM22 12c0-1.062-0.953-2-2-2h-5.5c0-1.828 1.5-3.156 1.5-5 0-1.828-0.359-3-2.5-3-1 1.016-0.484 3.406-2 5-0.438 0.453-0.812 0.938-1.203 1.422-0.703 0.906-2.562 3.578-3.797 3.578h-0.5v10h0.5c0.875 0 2.312 0.562 3.156 0.859 1.719 0.594 3.5 1.141 5.344 1.141h1.891c1.766 0 3-0.703 3-2.609 0-0.297-0.031-0.594-0.078-0.875 0.656-0.359 1.016-1.25 1.016-1.969 0-0.375-0.094-0.75-0.281-1.078 0.531-0.5 0.828-1.125 0.828-1.859 0-0.5-0.219-1.234-0.547-1.609 0.734-0.016 1.172-1.422 1.172-2zM24 11.984c0 0.906-0.266 1.797-0.766 2.547 0.094 0.344 0.141 0.719 0.141 1.078 0 0.781-0.203 1.563-0.594 2.25 0.031 0.219 0.047 0.453 0.047 0.672 0 1-0.328 2-0.938 2.781 0.031 2.953-1.984 4.688-4.875 4.688h-2.016c-2.219 0-4.281-0.656-6.344-1.375-0.453-0.156-1.719-0.625-2.156-0.625h-4.5c-1.109 0-2-0.891-2-2v-10c0-1.109 0.891-2 2-2h4.281c0.609-0.406 1.672-1.813 2.141-2.422 0.531-0.688 1.078-1.359 1.672-2 0.938-1 0.438-3.469 2-5 0.375-0.359 0.875-0.578 1.406-0.578 1.625 0 3.187 0.578 3.953 2.094 0.484 0.953 0.547 1.859 0.547 2.906 0 1.094-0.281 2.031-0.75 3h2.75c2.156 0 4 1.828 4 3.984z"></path>
	</symbol>
	
	<!-- eye -->
	<symbol id="eye" viewBox="0 0 32 32">
	<path d="M16 6c-6.979 0-13.028 4.064-16 10 2.972 5.936 9.021 10 16 10s13.027-4.064 16-10c-2.972-5.936-9.021-10-16-10zM23.889 11.303c1.88 1.199 3.473 2.805 4.67 4.697-1.197 1.891-2.79 3.498-4.67 4.697-2.362 1.507-5.090 2.303-7.889 2.303s-5.527-0.796-7.889-2.303c-1.88-1.199-3.473-2.805-4.67-4.697 1.197-1.891 2.79-3.498 4.67-4.697 0.122-0.078 0.246-0.154 0.371-0.228-0.311 0.854-0.482 1.776-0.482 2.737 0 4.418 3.582 8 8 8s8-3.582 8-8c0-0.962-0.17-1.883-0.482-2.737 0.124 0.074 0.248 0.15 0.371 0.228v0zM16 13c0 1.657-1.343 3-3 3s-3-1.343-3-3 1.343-3 3-3 3 1.343 3 3z"></path>
	</symbol>
</svg>
